<svg xmlns="http://www.w3.org/2000/svg" width="169" height="55"><path fill="#FFF" d="M31.551 33.978c-.539.404-1.084.847-1.635 1.327-.55.48-1.122.987-1.713 1.521a29.454 29.454 0 0 1-1.916 1.582 22.538 22.538 0 0 1-2.241 1.494c-.809.475-1.703.891-2.681 1.248-.979.357-2.056.642-3.234.853-1.178.211-2.482.316-3.911.316-1.582 0-3.008-.319-4.28-.958s-2.358-1.501-3.261-2.584-1.597-2.344-2.083-3.779a14.015 14.015 0 0 1-.729-4.526c0-1.078.117-2.235.352-3.472a27.325 27.325 0 0 1 1.011-3.779c.439-1.283.976-2.563 1.608-3.841s1.351-2.502 2.154-3.673a25.615 25.615 0 0 1 2.645-3.261 19.422 19.422 0 0 1 3.076-2.619 14.679 14.679 0 0 1 3.445-1.75 11.342 11.342 0 0 1 3.762-.633 7.81 7.81 0 0 1 2.566.449 6.777 6.777 0 0 1 2.338 1.38c.691.621 1.257 1.406 1.696 2.355.439.95.66 2.068.66 3.357 0 .868-.138 1.744-.414 2.628a12.043 12.043 0 0 1-1.134 2.549 13.853 13.853 0 0 1-1.696 2.294 12.398 12.398 0 0 1-2.1 1.854 10.68 10.68 0 0 1-2.338 1.239 6.839 6.839 0 0 1-2.427.458c-1.066 0-1.863-.143-2.39-.431-.528-.287-.792-.7-.792-1.239 0-.093-.003-.205-.009-.334a6.596 6.596 0 0 1 .026-1.064c.024-.228.071-.437.142-.624.07-.187.173-.34.307-.457.135-.118.319-.176.554-.176.141 0 .263.021.369.062.105.041.223.085.352.131.129.047.284.09.465.132.182.041.414.062.695.062.75 0 1.509-.164 2.276-.492a6.8 6.8 0 0 0 2.075-1.388 7.357 7.357 0 0 0 1.512-2.137c.392-.826.589-1.736.589-2.732 0-.528-.071-1.029-.211-1.504a3.257 3.257 0 0 0-.686-1.248 3.422 3.422 0 0 0-1.222-.861c-.499-.216-1.104-.325-1.819-.325-.844 0-1.667.184-2.471.553-.803.37-1.572.87-2.311 1.503a14.703 14.703 0 0 0-2.101 2.25 24.714 24.714 0 0 0-1.837 2.786c-.563.99-1.069 2.021-1.521 3.094s-.835 2.142-1.151 3.208a26.025 26.025 0 0 0-.729 3.103 16.644 16.644 0 0 0-.255 2.769c0 1.207.149 2.259.449 3.155.299.896.723 1.644 1.273 2.241a5.091 5.091 0 0 0 2.022 1.336c.797.293 1.693.439 2.69.439 1.241 0 2.398-.155 3.471-.466a16.847 16.847 0 0 0 3.068-1.222 25.173 25.173 0 0 0 2.821-1.705c.908-.633 1.816-1.269 2.725-1.907.908-.639 1.834-1.248 2.777-1.828s1.556-.542 2.611-.94l-.142 3.621c-.575.245-.603.201-1.142.606zm15.416-3.208c-.316-.422-.745-.879-1.284-1.371a28.049 28.049 0 0 0-1.713-1.441 60.81 60.81 0 0 0-3.297-2.372l-.14.193c.34.679.595 1.397.765 2.153.169.756.254 1.479.254 2.171s-.076 1.389-.228 2.092-.373 1.383-.659 2.039a9.954 9.954 0 0 1-1.055 1.846 7.578 7.578 0 0 1-1.423 1.494c-.534.422-1.117.756-1.75 1.002s-1.307.369-2.021.369c-1.031 0-1.914-.226-2.646-.677a5.641 5.641 0 0 1-1.802-1.767 7.836 7.836 0 0 1-1.027-2.461 11.924 11.924 0 0 1-.326-2.777c0-1.289.193-2.493.58-3.612.387-1.119.941-2.092 1.662-2.918a7.663 7.663 0 0 1 2.646-1.951c1.043-.475 2.215-.712 3.516-.712a9.27 9.27 0 0 1 3.128.519c.973.346 1.884.809 2.733 1.389.85.58 1.641 1.245 2.373 1.995.732.75 1.415 1.523 2.048 2.32l-.334 2.477zm-8.912-3.015a4.665 4.665 0 0 0-.369-1.204 2.232 2.232 0 0 0-.633-.809 1.48 1.48 0 0 0-.932-.299c-.48 0-.938.206-1.371.616-.434.41-.814.935-1.142 1.573a9.476 9.476 0 0 0-.773 2.118 9.445 9.445 0 0 0-.282 2.232c0 .492.047.955.141 1.389.094.434.241.812.439 1.134.2.322.463.58.792.773.328.193.72.29 1.178.29.398 0 .785-.202 1.16-.606s.704-.914.984-1.529c.281-.615.507-1.295.677-2.039s.255-1.456.255-2.136a8.723 8.723 0 0 0-.124-1.503zm20.022 6.099c.093.24.219.431.377.571a.853.853 0 0 0 .589.211c.222 0 .466-.044.729-.132.263-.088.542-.208.835-.36a10.6 10.6 0 0 0 .887-.519c.299-.193.589-.39.871-.589a34.626 34.626 0 0 0 2.021-1.6l.527 4.061a29.57 29.57 0 0 1-2.461 1.723c-.34.211-.697.419-1.072.624s-.745.387-1.107.545a8.84 8.84 0 0 1-1.064.387c-.345.1-.665.149-.958.149-.164 0-.407-.035-.729-.105s-.674-.214-1.055-.431-.762-.53-1.143-.94-.712-.955-.993-1.635c-.434.422-.895.823-1.38 1.204s-.991.712-1.512.993a9.217 9.217 0 0 1-1.582.677c-.534.17-1.07.255-1.608.255-.763 0-1.421-.164-1.979-.492a4.287 4.287 0 0 1-1.388-1.31c-.37-.545-.645-1.163-.826-1.854s-.273-1.406-.273-2.145c0-.749.097-1.509.29-2.276s.475-1.512.844-2.232a11.35 11.35 0 0 1 1.344-2.039 10.28 10.28 0 0 1 3.973-2.945 8.532 8.532 0 0 1 2.514-.615 34.133 34.133 0 0 1 1.336-8.632 26.273 26.273 0 0 1 1.362-3.673c.521-1.125 1.092-2.098 1.713-2.918s1.284-1.461 1.987-1.925c.703-.463 1.429-.694 2.179-.694.551 0 1.02.144 1.406.431.387.288.7.668.941 1.142.24.476.413 1.026.518 1.652.105.627.158 1.275.158 1.942 0 .411-.018.833-.053 1.266a26.528 26.528 0 0 1-.844 4.685 43.775 43.775 0 0 1-1.441 4.298 72.774 72.774 0 0 1-1.792 4.149 94.792 94.792 0 0 0-1.881 4.271 6.13 6.13 0 0 0-.176.598 13.975 13.975 0 0 0-.298 1.609 7.256 7.256 0 0 0 .009 1.802c.044.304.11.576.205.816zm-5.081-3.058a30.455 30.455 0 0 1-.053-1.195l-.035-1.362c-.012-.468-.021-.896-.027-1.283-.005-.387-.014-.703-.026-.949s-.023-.363-.035-.352a7.388 7.388 0 0 0-2.065 1.485 9.577 9.577 0 0 0-1.512 1.995 10.16 10.16 0 0 0-.923 2.162c-.21.727-.316 1.383-.316 1.969 0 .234.026.469.079.703s.149.445.29.633.34.34.598.457.592.176 1.002.176c.211 0 .418-.053.624-.158s.402-.243.589-.413c.188-.17.366-.363.536-.58.17-.217.326-.442.466-.677.328-.539.627-1.148.896-1.828a6.007 6.007 0 0 1-.088-.783zm5.889-9.641c.234-.645.472-1.321.711-2.031.241-.709.46-1.42.66-2.136a34.92 34.92 0 0 0 .519-2.108c.146-.692.249-1.348.308-1.969.07-.82.105-1.471.105-1.951 0-.633-.056-1.072-.167-1.319-.111-.246-.272-.369-.483-.369-.375 0-.715.237-1.02.712-.305.475-.575 1.081-.808 1.819-.235.738-.44 1.553-.616 2.444a48.235 48.235 0 0 0-.439 2.584 67.772 67.772 0 0 0-.422 3.673 59.006 59.006 0 0 0-.176 3.12c-.013.439-.018.824-.018 1.151V25.707a85.487 85.487 0 0 0 1.846-4.552zm18.51 14.976c-.504.352-1.046.697-1.626 1.037s-1.189.642-1.828.905a12.63 12.63 0 0 1-1.987.633 9.236 9.236 0 0 1-2.083.237c-1.102 0-2.065-.199-2.891-.598a5.982 5.982 0 0 1-2.066-1.608 6.873 6.873 0 0 1-1.239-2.338 9.296 9.296 0 0 1-.414-2.786c0-.656.064-1.351.193-2.083s.325-1.45.589-2.153.594-1.373.994-2.013a8.027 8.027 0 0 1 1.397-1.688 6.44 6.44 0 0 1 1.793-1.16c.662-.288 1.397-.431 2.206-.431a5.14 5.14 0 0 1 1.828.316c.563.211 1.052.507 1.468.888s.741.841.976 1.379c.234.54.352 1.143.352 1.811 0 .727-.179 1.453-.537 2.18-.358.727-.853 1.412-1.485 2.057s-1.386 1.219-2.258 1.723a12.13 12.13 0 0 1-2.839 1.178c.175.316.348.58.518.791.17.211.343.375.52.492.175.117.36.199.553.246.193.047.402.07.624.07.704 0 1.445-.141 2.224-.422.779-.281 1.538-.633 2.276-1.055s1.436-.882 2.092-1.38 1.213-.97 1.67-1.415l2.267 2.355a23.037 23.037 0 0 1-3.287 2.832zm-8.482-5.775c.498-.217.96-.494 1.388-.835.428-.34.789-.709 1.082-1.107.292-.398.439-.785.439-1.16 0-.527-.097-.961-.29-1.301-.193-.34-.431-.51-.712-.51-.504 0-.934.094-1.292.282a2.824 2.824 0 0 0-.896.729 3.75 3.75 0 0 0-.58 1.02 6.893 6.893 0 0 0-.334 1.151 8.526 8.526 0 0 0-.149 1.125c-.024.363-.036.674-.036.932.423 0 .882-.109 1.38-.326zm32.449-11.065c-.393.879-1.008 1.673-1.846 2.382s-1.91 1.292-3.217 1.749-2.874.704-4.702.738c1.16 0 2.174.185 3.041.553.867.37 1.594.868 2.18 1.495a6.198 6.198 0 0 1 1.318 2.171c.292.82.439 1.682.439 2.584a9.124 9.124 0 0 1-1.195 4.447c-.398.703-.896 1.362-1.494 1.978s-1.299 1.151-2.101 1.608c-.803.457-1.708.817-2.716 1.081-1.009.264-2.115.396-3.322.396-.762 0-1.564-.05-2.409-.149a33.686 33.686 0 0 1-5.097-1.01 32.532 32.532 0 0 1-2.355-.756 2.819 2.819 0 0 1-.871-.369c-.251-.164-.377-.457-.377-.879 0-1.945.05-3.938.149-5.977.099-2.039.302-4.031.607-5.977a35.794 35.794 0 0 1 1.318-5.562c.574-1.764 1.335-3.343 2.285-4.738.832-.574 1.587-.861 2.267-.861.855 0 1.57.481 2.145 1.441a11.925 11.925 0 0 0-1.38 2.426c-.381.89-.7 1.826-.958 2.804a29.361 29.361 0 0 0-.624 2.997 51.701 51.701 0 0 0-.377 2.988 41.734 41.734 0 0 0-.149 1.758c-.042.622-.08 1.255-.115 1.898a69.753 69.753 0 0 0-.106 3.762c0 .094.002.223.009.387.005.164.021.334.044.51s.058.337.105.483a.627.627 0 0 0 .211.325c.714.234 1.482.434 2.302.598.82.164 1.641.246 2.461.246.996 0 1.961-.12 2.9-.36.938-.24 1.77-.621 2.496-1.143s1.31-1.189 1.749-2.004.659-1.802.659-2.962c0-.679-.129-1.245-.387-1.696s-.596-.829-1.011-1.134c-.416-.305-.891-.548-1.424-.729s-1.079-.345-1.635-.492l-1.635-.431a6.826 6.826 0 0 1-1.423-.536 3.091 3.091 0 0 1-1.012-.809c-.258-.321-.387-.74-.387-1.257 0-.246.015-.459.044-.642.03-.181.1-.33.211-.448.111-.117.275-.205.492-.264.217-.058.513-.088.888-.088.504 0 .964.021 1.38.062.416.041.864.061 1.345.061 1.125 0 2.142-.137 3.05-.413.908-.275 1.682-.647 2.32-1.116.639-.469 1.131-1.017 1.477-1.643a4.102 4.102 0 0 0 .519-2.013c0-.469-.135-.899-.404-1.292-.27-.393-.647-.745-1.134-1.055s-1.058-.583-1.714-.817-1.371-.431-2.145-.589a21.877 21.877 0 0 0-2.443-.352 29.387 29.387 0 0 0-5.898.071 20.523 20.523 0 0 0-3.023.562c-.932.252-1.758.569-2.479.95-.72.38-1.269.824-1.643 1.328-.763 1.383-1.442 2.419-2.039 3.111-.598.691-1.084 1.036-1.459 1.036-.516 0-.774-.591-.774-1.775 0-1.148.165-2.179.493-3.094a7.967 7.967 0 0 1 1.38-2.435 8.493 8.493 0 0 1 2.11-1.81 12.85 12.85 0 0 1 2.672-1.231 17.25 17.25 0 0 1 3.067-.711 23.761 23.761 0 0 1 3.321-.229c1.325 0 2.655.097 3.991.29 1.336.193 2.619.466 3.85.817a23.34 23.34 0 0 1 3.445 1.274c1.066.499 1.995 1.049 2.786 1.652.791.604 1.412 1.257 1.863 1.96s.677 1.436.677 2.197a6.455 6.455 0 0 1-.586 2.672zm11.795-6.759a26.005 26.005 0 0 1-1.02 3.445 39.524 39.524 0 0 1-1.485 3.472c-.562 1.16-1.148 2.312-1.758 3.454s-1.222 2.268-1.837 3.374a107.022 107.022 0 0 0-1.731 3.244c-.059.117-.12.27-.185.457s-.127.39-.185.606c-.06.217-.117.448-.176.694s-.105.486-.141.721v.246c0 .305.032.601.097.888.063.287.144.545.237.773s.193.41.299.545.205.202.299.202c.223 0 .478-.047.765-.141s.592-.22.914-.378.653-.34.993-.545.668-.413.984-.624a34.067 34.067 0 0 0 2.32-1.705l1.441 3.691a36.2 36.2 0 0 1-3.094 2.004c-.445.246-.905.489-1.38.729s-.952.454-1.433.642c-.481.188-.949.337-1.406.448s-.885.167-1.283.167c-.633 0-1.222-.278-1.767-.835s-1.02-1.304-1.424-2.241-.721-2.024-.949-3.261-.343-2.534-.343-3.894c0-1.043.076-2.177.229-3.401s.375-2.488.668-3.788a52.062 52.062 0 0 1 1.046-3.919 39.709 39.709 0 0 1 1.371-3.78 31.87 31.87 0 0 1 1.661-3.383 18.38 18.38 0 0 1 1.881-2.742c.656-.779 1.342-1.391 2.057-1.837.715-.445 1.441-.668 2.18-.668.504 0 .919.114 1.248.343.328.228.586.53.773.905s.319.8.396 1.274c.076.475.114.958.114 1.45a15.473 15.473 0 0 1-.376 3.368zm-3.304-2.478c-.018-.24-.073-.36-.167-.36-.34 0-.706.22-1.099.66-.393.439-.785 1.034-1.178 1.784s-.768 1.624-1.125 2.619a33.478 33.478 0 0 0-1.626 6.653 25.411 25.411 0 0 0-.246 3.472 81.626 81.626 0 0 0 1.679-3.164 60.696 60.696 0 0 0 1.679-3.621c.527-1.243.984-2.482 1.371-3.718s.633-2.388.738-3.454c0-.341-.009-.631-.026-.871zm17.956 20.716c-.316-.422-.744-.879-1.283-1.371s-1.11-.973-1.714-1.441-1.198-.911-1.784-1.327a62.747 62.747 0 0 0-1.512-1.045l-.141.193c.34.679.595 1.397.765 2.153s.255 1.479.255 2.171-.077 1.389-.229 2.092c-.152.703-.372 1.383-.659 2.039s-.639 1.272-1.055 1.846a7.554 7.554 0 0 1-1.424 1.494c-.533.422-1.116.756-1.749 1.002s-1.307.369-2.021.369c-1.031 0-1.913-.226-2.646-.677s-1.333-1.04-1.802-1.767-.812-1.547-1.028-2.461-.325-1.839-.325-2.777c0-1.289.193-2.493.58-3.612s.94-2.092 1.661-2.918 1.603-1.477 2.646-1.951c1.043-.475 2.215-.712 3.516-.712 1.113 0 2.156.173 3.129.519.973.346 1.884.809 2.733 1.389.85.58 1.641 1.245 2.373 1.995.732.75 1.415 1.523 2.048 2.32l-.334 2.477zm-8.913-3.015c-.082-.463-.205-.864-.369-1.204s-.375-.609-.633-.809a1.48 1.48 0 0 0-.932-.299c-.48 0-.938.206-1.371.616-.434.41-.815.935-1.143 1.573-.328.639-.586 1.345-.773 2.118s-.281 1.518-.281 2.232c0 .492.047.955.141 1.389s.24.812.439 1.134.463.58.791.773.721.29 1.178.29c.398 0 .785-.202 1.16-.606s.703-.914.984-1.529.507-1.295.677-2.039.255-1.456.255-2.136a8.437 8.437 0 0 0-.123-1.503zm19.055 7.849c-.434.422-.905.832-1.415 1.23s-1.043.753-1.6 1.063-1.137.562-1.74.756-1.216.29-1.837.29c-1.078 0-2.024-.199-2.839-.598s-1.497-.932-2.048-1.6-.967-1.441-1.248-2.32-.422-1.793-.422-2.742c0-.68.07-1.389.211-2.127s.349-1.462.624-2.171.615-1.386 1.02-2.031a8.145 8.145 0 0 1 1.406-1.696c.533-.486 1.128-.873 1.784-1.16s1.377-.431 2.162-.431c.668 0 1.286.103 1.854.308s1.055.489 1.459.852.721.794.949 1.292a3.81 3.81 0 0 1 .343 1.609c0 .398-.053.791-.158 1.178s-.261.735-.466 1.046-.454.56-.747.747-.622.281-.984.281c-.551 0-.911-.146-1.081-.439s-.255-.697-.255-1.213c0-.211.009-.434.026-.668.018-.233.026-.445.026-.633 0-.281-.029-.516-.088-.703s-.188-.282-.387-.282c-.48 0-.891.115-1.23.343a3.093 3.093 0 0 0-.87.897c-.24.369-.431.785-.571 1.248s-.252.923-.334 1.38-.135.895-.158 1.31c-.023.416-.035.765-.035 1.046 0 .422.038.861.114 1.318s.22.876.431 1.257.498.697.861.949c.362.252.832.378 1.406.378.562 0 1.184-.173 1.863-.519s1.362-.782 2.048-1.31 1.339-1.107 1.96-1.74 1.154-1.23 1.6-1.793l1.213 2.039a22.89 22.89 0 0 1-2.847 3.359zm26.991-11.013c-.24 1.53-.604 3.05-1.09 4.562s-1.105 2.971-1.854 4.377c-.75 1.406-1.635 2.669-2.654 3.788s-2.177 2.054-3.472 2.804-2.733 1.225-4.315 1.424c.551.551 1.04 1.083 1.468 1.6.428.516.847.976 1.257 1.38s.838.729 1.283.976.955.369 1.529.369c.562 0 1.11-.146 1.644-.439s1.017-.615 1.45-.967c.504-.41.984-.885 1.441-1.424a.769.769 0 0 1 .369-.158c.116-.012.211-.018.281-.018.305.059.562.176.773.352s.378.387.501.633.211.507.264.782.079.529.079.765c0 .305-.033.519-.097.642a1.1 1.1 0 0 1-.185.272l-.316.325c-.199.205-.478.46-.835.765s-.785.635-1.283.993a11.816 11.816 0 0 1-3.586 1.731 7.623 7.623 0 0 1-2.136.299c-.891 0-1.647-.17-2.268-.51-.621-.34-1.151-.776-1.591-1.31s-.804-1.125-1.09-1.775c-.287-.65-.548-1.286-.782-1.907s-.457-1.192-.668-1.714-.457-.917-.738-1.187c-1.781-.316-3.305-.908-4.57-1.775s-2.303-1.928-3.111-3.182-1.4-2.666-1.775-4.236-.562-3.21-.562-4.922c0-1.594.149-3.235.448-4.922a28.505 28.505 0 0 1 1.336-4.931c.592-1.6 1.33-3.107 2.215-4.526a17.793 17.793 0 0 1 3.085-3.735 13.857 13.857 0 0 1 3.946-2.541c1.459-.62 3.056-.931 4.79-.931 1.746 0 3.311.333 4.693 1.001 1.383.667 2.555 1.608 3.516 2.821s1.696 2.678 2.206 4.395c.51 1.717.765 3.618.765 5.704 0 1.37-.121 2.82-.361 4.35zm-5.053-9.264c-.234-1.142-.592-2.132-1.072-2.971-.48-.837-1.084-1.49-1.811-1.959-.728-.469-1.582-.703-2.566-.703-.996 0-1.963.275-2.9.826-.938.551-1.816 1.295-2.637 2.232a18.54 18.54 0 0 0-2.25 3.253 25.999 25.999 0 0 0-1.749 3.901 28.448 28.448 0 0 0-1.134 4.184 21.82 21.82 0 0 0-.404 4.079c0 1.384.152 2.663.457 3.841s.744 2.197 1.318 3.059 1.277 1.535 2.109 2.021 1.775.729 2.83.729c.89 0 1.72-.185 2.487-.554s1.474-.87 2.118-1.503 1.228-1.38 1.749-2.241c.521-.861.987-1.78 1.397-2.76.41-.979.768-1.992 1.072-3.041s.557-2.086.756-3.111c.199-1.026.346-2.016.439-2.971.094-.955.141-1.819.141-2.593a18.462 18.462 0 0 0-.35-3.718z"/></svg>